<svg version="1" xmlns="http://www.w3.org/2000/svg" width="882.667" height="882.667" viewBox="0 0 662.000000 662.000000"><path d="M329.3 24.7c-2.4.5-6.7 4.4-13.3 12.2-2.5 2.9-6.1 7.2-8.1 9.5-3.1 3.5-20 23.2-27.7 32.1-1.4 1.6-4.1 4.8-6.1 7s-5.5 6.3-7.8 9c-2.3 2.8-5 6-6 7.1-1 1.2-3.8 4.5-6.3 7.4-2.5 3-5.4 6.3-6.5 7.6-1.1 1.2-3.1 3.5-4.4 5-1.4 1.6-5 5.8-8 9.4-3.1 3.5-6.7 7.8-8.1 9.4-1.4 1.6-2.9 3.4-3.5 4-1.9 2.2-12.2 14.1-14.1 16.4-1 1.3-2.8 3.4-3.9 4.6-1.1 1.2-4 4.6-6.5 7.5-2.5 3-5.4 6.3-6.5 7.5-1.1 1.2-4.7 5.3-8 9.1-3.2 3.9-6.6 7.7-7.5 8.6-.8.8-3.1 3.5-5 5.9-1.9 2.4-4.2 5.1-5.1 5.9-.8.9-5.5 6.3-10.5 12.1-4.9 5.8-9.4 10.9-10 11.5-1 .9-23.1 26.6-27.9 32.4-1.1 1.3-2.7 3.1-3.5 4-.9.9-4.3 4.7-7.5 8.6-3.3 3.8-6.5 7.4-7.1 8-.6.5-6.4 7.3-13 15-6.5 7.6-12.6 14.6-13.4 15.5-.8.9-3.7 4.2-6.5 7.4-5.4 6.3-5.5 6.5-13.1 15.2-2.8 3.2-8.6 9.9-12.9 14.8-4.2 4.9-8.6 9.8-9.7 11-8.7 9.3-8 18.7 2 27 6 5 14.6 12.4 18.2 15.6 1.5 1.4 4.9 4.3 7.5 6.5 2.7 2.2 5.3 4.4 5.9 5 .6.5 2.9 2.6 5.2 4.5 13.6 11.9 18 15.7 19.6 17.3 1 .9 2 1.7 2.3 1.7.3 0 1.6 1 2.8 2.3 1.2 1.2 5.1 4.7 8.7 7.7 3.6 3 7.2 6.2 8 7 .8.9 4 3.5 7 6s5.7 4.7 6 5.1c.4.5 9.2 8.1 19.4 16.9 1.6 1.4 3.7 3.2 4.6 4 .9.8 4.3 3.7 7.5 6.5 3.3 2.7 6.9 5.9 8.1 7 1.1 1.1 4 3.6 6.3 5.5 2.4 1.9 5.4 4.4 6.6 5.5 1.3 1.1 5.1 4.5 8.5 7.5 3.4 3 7.2 6.4 8.5 7.5 1.2 1.1 3.3 2.9 4.7 4 2.6 2 14.9 12.8 17.8 15.5.8.8 3.1 2.7 5 4.1 1.9 1.5 4.6 3.7 6 5.1 1.4 1.3 6.1 5.5 10.5 9.3 4.4 3.8 8.2 7.1 8.5 7.4.3.4 3 2.6 6 5.1 3 2.5 6.2 5.2 7 6 .9.8 4.2 3.7 7.4 6.5 3.2 2.7 6.4 5.5 7 6 .6.6 4.7 4.2 9.1 8 4.4 3.8 8.2 7.1 8.5 7.4.3.3 3.4 3 7 6s7 5.9 7.5 6.5c.6.6 3.5 3.1 6.5 5.6 3 2.4 6.2 5.3 7.1 6.2 2.1 2.3 7.8 4.6 10.3 4.2 4.5-.7 6.3-1.5 9.6-4.5 6.6-5.8 25.5-21.9 29.9-25.5 1.3-1 2.8-2.4 3.5-3 .6-.5 4.5-3.9 8.6-7.4 4.1-3.6 8.9-7.7 10.5-9.1 3.3-2.9 30.9-26.5 39.4-33.8 3-2.5 7.5-6.4 10.1-8.6 2.5-2.2 7-6.1 10-8.7 20.1-17.1 59.5-50.8 64.2-55 3.1-2.7 7-5.9 8.5-7.1 1.5-1.2 3.3-2.6 3.8-3.2.6-.6 4.2-3.8 8-7.1 3.9-3.2 7.2-6.1 7.5-6.4.3-.3 3-2.5 6-5s6.2-5.2 7-6c1.7-1.6 4.5-3.9 24.5-21 6.6-5.7 12.2-10.6 12.5-10.9.3-.3 2.5-2.2 5-4.2s5.6-4.7 7-5.9c1.4-1.2 5-4.2 7.9-6.8 3-2.6 6.2-5.4 7.1-6.2.9-.8 3.8-3.3 6.5-5.4 2.8-2.2 5.7-4.7 6.5-5.5 5.1-5.3 4.5-12.1-1.8-19.3-2-2.4-5.5-6.6-7.7-9.2-2.2-2.7-4.5-5.4-5-6-.6-.6-4.6-5.4-9-10.6-4.4-5.2-9.2-10.8-10.7-12.5-3.1-3.5-5.8-6.7-9.6-11.3-1.5-1.9-3.6-4.3-4.8-5.5-1.1-1.2-4.5-5.1-7.5-8.7-2.9-3.6-5.6-6.7-5.9-7-.3-.3-4.1-4.8-8.5-10s-8.2-9.7-8.5-10c-.3-.3-2.8-3.2-5.5-6.5-2.8-3.3-5.4-6.5-6-7.1-2.1-2.3-13.8-16.1-19-22.3-1.1-1.3-2.7-3.1-3.5-4-.8-.9-3.5-4.1-6-7.1s-5.1-6.1-5.8-6.9c-.7-.7-4.6-5.2-8.5-10-4-4.7-7.7-9.1-8.3-9.6-1-.9-8.8-10.2-13-15.4-1-1.3-2.4-2.9-3.1-3.5-.6-.7-4.1-4.8-7.8-9.2-7.3-8.6-14-16.4-16.8-19.8-1-1.1-3.6-4.1-5.7-6.6s-4.8-5.6-6-7c-1.2-1.4-2.9-3.4-3.8-4.5-3.2-3.8-12.7-15-13.7-16.1-.5-.6-2.6-3.1-4.7-5.5-2-2.4-4.6-5.5-5.8-6.9-1.2-1.4-3.6-4.2-5.3-6.3-1.8-2.1-4.3-5.1-5.7-6.6-1.4-1.5-3.4-3.9-4.5-5.2-2.5-3-24.6-29-26-30.5-.5-.6-6.8-8-14-16.5-12.9-15.4-17.1-19.8-19-20-3.8-.5-6.3-.5-8.2-.2zm5.4 33.7c1 1.7 8.9 11.2 12.1 14.4 1.2 1.2 2.2 2.5 2.2 2.8 0 .4 4.1 5.2 7.1 8.3.8.9 5.1 5.9 9.5 11.1 4.3 5.2 8.4 10 8.9 10.6 1.2 1.3 6.8 7.8 20 23.4 9.6 11.4 16.3 19.1 20.5 24 1.1 1.4 3.1 3.6 4.2 5 1.2 1.4 3.5 4.1 5.2 6 1.7 2 4.9 5.7 7.1 8.4 2.2 2.7 5.2 6.1 6.6 7.7 1.4 1.5 3.9 4.4 5.5 6.5 1.6 2 3.4 4.2 3.9 4.8 2.6 2.9 23.8 27.7 31.7 37 1.8 2.2 5.1 6.1 7.3 8.6 2.2 2.6 5.1 6 6.4 7.6 1.4 1.6 5.2 6.1 8.5 9.9 3.4 3.9 7.9 9.3 10.1 11.9 2.2 2.7 4.5 5.4 5 6 .6.6 6.2 7.2 12.5 14.6 6.3 7.4 11.9 14 12.5 14.6.5.6 1.9 2.2 3 3.5 8.2 9.7 15 17.8 16.9 19.9 1.2 1.4 5.8 6.8 10.2 12 4.3 5.2 8.8 10.4 9.9 11.6 9.4 10.4 14.7 17.2 13.8 17.7-.5.2-36.3.4-79.8.3l-79-.1-12.5-14.6c-16.2-19-22-25.7-24.7-28.8-1.3-1.4-2.6-3.1-3.1-3.6-5.4-6.6-19.8-23.3-21.1-24.5-.9-.8-2.3-2.4-3.1-3.6-.8-1.1-4-5-7.2-8.5-3.1-3.5-6.7-7.8-8-9.4-1.2-1.7-3.4-4.1-4.8-5.5-1.4-1.4-3.6-3.9-4.8-5.5-1.3-1.7-4.9-5.9-8-9.4-3.2-3.5-6.4-7.4-7.2-8.5-.8-1.2-1.9-2.6-2.5-3.1-.6-.6-3.8-4.2-7.1-8-3.2-3.9-6.1-7.2-6.4-7.5-.3-.3-2.8-3.2-5.5-6.5-2.8-3.3-5.5-6.5-6.1-7-.6-.6-3.5-3.9-6.5-7.5s-5.6-6.7-5.9-7c-.3-.3-2.8-3.2-5.5-6.5-2.8-3.3-5.7-6.7-6.5-7.5-.9-.8-5.1-5.8-9.5-11s-8.7-10.1-9.5-11c-.8-.8-3.2-3.7-5.4-6.3-4.4-5.4-4.8-3.9 3.4-13.2 1.9-2.2 5.8-6.7 8.5-9.9 6.3-7.5 11.3-13.3 14.3-16.3 1.2-1.3 2.2-2.6 2.2-2.8 0-.2 1.2-1.7 2.6-3.2 1.4-1.5 4-4.5 5.8-6.7 1.7-2.1 3.7-4.4 4.3-5.1.7-.7 5.8-6.6 11.4-13.2 5.5-6.5 11.7-13.6 13.7-15.9 2.1-2.3 5.3-6 7.2-8.3 3.8-4.5 4.5-4.8 5.7-2.7zm-88 126.3c6.5 7.6 12 14 12.4 14.3.3.3 3.2 3.6 6.4 7.5 3.2 3.8 6.3 7.4 6.9 8 .6.5 2.8 3.1 4.9 5.7 2.1 2.6 4.3 5.3 5 6 .7.7 3.9 4.4 7.2 8.3 3.3 3.8 7.2 8.3 8.6 10 1.5 1.6 6.9 7.9 12 14 5.2 6 9.8 11.5 10.4 12.1.5.6 2.8 3.2 5 5.8 2.2 2.7 4.9 5.8 6 7 1.1 1.2 4 4.6 6.5 7.6s5.4 6.4 6.5 7.6c1.1 1.2 3.6 4.1 5.7 6.5 2 2.4 4.8 5.7 6.3 7.4 1.4 1.6 4.3 5 6.3 7.5s4 4.7 4.3 5c.6.5 17.7 20.4 25.8 30 2.5 3 5.6 6.5 6.8 7.7 1.9 2 2 2.3.5 2.3-3.4.1-279.4-.1-304.9-.2-15.7 0-26.3-.4-26.3-1 0-.5.6-1.5 1.2-2.3.7-.7 3.6-3.9 6.3-7 2.8-3.2 5.5-6.3 6-6.9.6-.6 6.4-7.4 13-15.1 6.6-7.7 12.4-14.5 13-15.1.5-.6 2.8-3.3 5-5.9 2.2-2.7 4.5-5.3 5-5.9.6-.6 3.9-4.5 7.4-8.6 3.5-4.1 6.7-7.7 7-8 .3-.3 3.1-3.4 6.1-7 3-3.6 6.5-7.6 7.6-9 2.4-2.8 10.2-11.8 14.3-16.5 1.4-1.7 9.3-10.9 17.5-20.5 8.3-9.6 15.2-17.7 15.6-18 .3-.3 3-3.4 6-7s6-7 6.6-7.6c.5-.6 3-3.5 5.5-6.4 2.4-2.9 5.5-6.5 6.8-7.9 1.3-1.4 5.3-6.1 8.9-10.4 3.6-4.2 6.6-7.7 6.8-7.7.2 0 5.6 6.2 12.1 13.7zM588 393.1c0 .3-2.1 2.3-4.7 4.5-2.5 2.1-5.1 4.3-5.7 4.9-.6.5-5.8 5-11.6 10-5.8 4.9-11.6 9.9-13 11.1-2.1 1.9-7.5 6.5-13.1 11.2-3.5 2.9-11.5 9.9-13.6 11.9-1.3 1.1-4.1 3.5-6.3 5.3-2.1 1.7-4.9 4.1-6.2 5.2-1.3 1.1-4.5 3.8-7.2 6.1s-5.4 4.7-6 5.2c-.6.6-7.4 6.4-15.1 13-7.7 6.6-14.5 12.4-15.1 13-.6.5-3.5 3-6.4 5.4-2.9 2.5-5.8 5-6.4 5.5-.6.6-3.8 3.3-7.1 6-3.3 2.8-6.7 5.7-7.6 6.5-.9.9-4 3.6-7 6.1-2.9 2.5-6.5 5.5-7.9 6.7-1.4 1.3-3 2.6-3.5 3-.6.5-3.1 2.6-5.6 4.8-2.5 2.2-5.8 5.1-7.5 6.5-7.8 6.7-23 19.6-24 20.5-1.3 1.1-2.6 2.3-17.4 14.9-11 9.4-15 12.9-18.1 15.8-1.1 1-2.3 1.8-2.8 1.8s-1.1.4-1.3.9c-.1.5-4.3 4.3-9.2 8.4l-8.8 7.6-2.3-2.2c-1.2-1.2-3.3-3.1-4.6-4.1-2.4-1.9-15.4-13.1-17.5-15.1-.6-.6-3.2-2.8-5.9-5-2.6-2.2-5.8-4.9-6.9-6-1.2-1.1-5.3-4.7-9.1-8-3.9-3.2-7.7-6.6-8.6-7.5-.9-.8-3.8-3.3-6.4-5.5-2.7-2.2-5.3-4.5-5.9-5-.6-.6-6-5.3-12.1-10.5-6-5.2-11.5-10-12.1-10.5-.6-.6-3.5-3.1-6.4-5.6-8.5-7.2-9.2-7.8-15.5-13.4-3.3-2.9-7.6-6.5-9.5-8.1-1.9-1.6-3.7-3.1-4-3.5-.3-.3-3.9-3.5-8-7-11.6-9.9-13.2-11.3-15-12.9-.8-.8-4.5-4-8-7-3.6-3-7-6-7.6-6.5-.6-.6-2.4-2.1-4-3.5-4.2-3.6-17.7-15.3-19-16.5-.6-.6-3.5-3-6.4-5.5-2.9-2.5-6-5.2-6.9-6-.9-.8-4.3-3.8-7.6-6.5-3.3-2.8-7.1-6.1-8.5-7.5-1.4-1.4-3.4-3.2-4.6-4-1.2-.8-5.2-4.2-9-7.6-5.5-4.8-20.8-18.1-24.7-21.4-.4-.3 115.1-.6 256.8-.6 141.6.1 257.5.4 257.5.7z"/></svg>